<svg width='80' viewBox="0 0 759 438" fill="none" xmlns="http://www.w3.org/2000/svg">
    <path opacity="0.974" fill-rule="evenodd" clip-rule="evenodd" d="M658.5 80.4999C658.5 81.1669 658.5 81.8329 658.5 82.4999C651.373 80.9019 644.373 78.9019 637.5 76.4999C577.014 59.7409 515.347 51.7409 452.5 52.4999C363.632 52.5249 276.298 64.0249 190.5 86.9999C143.171 100.003 99.171 120.003 58.5 147C42.7146 158.286 28.7146 171.453 16.5 186.5C11.8106 191.703 7.6439 197.37 4 203.5C3.2303 204.598 2.397 204.598 1.5 203.5C1.6626 182.513 6.8293 162.847 17 144.5C31.3205 120.844 49.8205 101.01 72.5 84.9999C116.71 55.6939 164.71 34.6939 216.5 21.9999C252.342 12.4314 288.676 5.43143 325.5 0.999934C444.493 -5.66777 555.493 20.8322 658.5 80.4999Z" fill="#3DA933"/>
    <path opacity="0.965" fill-rule="evenodd" clip-rule="evenodd" d="M532.5 75.4999C533.376 75.3689 534.043 75.7019 534.5 76.4999C413.663 154.084 292.997 231.917 172.5 310C141.167 310.667 109.833 310.667 78.5 310C96.5 298.333 114.5 286.667 132.5 275C117.955 262.283 103.289 249.783 88.5 237.5C98.722 229.119 109.388 221.286 120.5 214C121.833 213.333 123.167 213.333 124.5 214C147.241 221.469 169.908 229.136 192.5 237C193.833 237.667 195.167 237.667 196.5 237C264.996 198.586 333.329 159.92 401.5 121C445.377 106.098 489.044 90.9309 532.5 75.4999Z" fill="#3DA933"/>
    <path opacity="0.957" fill-rule="evenodd" clip-rule="evenodd" d="M637.5 76.5C644.373 78.902 651.373 80.902 658.5 82.5C659.568 83.434 660.901 83.768 662.5 83.5C688.831 99.322 711.997 118.988 732 142.5C764.024 185.447 767.024 230.447 741 277.5C716.984 313.517 686.484 342.684 649.5 365C629.019 377.74 607.352 388.073 584.5 396C576.991 398.335 569.324 399.835 561.5 400.5C561.33 399.178 561.663 398.011 562.5 397C599.386 376.465 631.886 350.298 660 318.5C678.976 293.565 694.643 266.565 707 237.5C724.401 184.939 712.901 139.772 672.5 102C661.475 92.5 649.808 84 637.5 76.5Z" fill="#3DA933"/>
    <path opacity="0.847" fill-rule="evenodd" clip-rule="evenodd" d="M658.5 80.5C659.872 81.512 661.205 82.512 662.5 83.5C660.901 83.768 659.568 83.434 658.5 82.5C658.5 81.833 658.5 81.167 658.5 80.5Z" fill="#3DA933"/>
    <path opacity="0.956" fill-rule="evenodd" clip-rule="evenodd" d="M16.5005 186.5C12.9409 200.214 14.7742 213.214 22.0005 225.5C31.0612 240.281 43.2279 251.781 58.5005 260C75.1705 268.776 92.5035 275.776 110.501 281C96.4165 291.458 81.9165 301.291 67.0005 310.5C17.1159 292.073 -4.7174 256.406 1.5005 203.5C2.3975 204.598 3.2308 204.598 4.0005 203.5C7.6444 197.37 11.8111 191.703 16.5005 186.5Z" fill="#3DA933"/>
    <path opacity="0.958" fill-rule="evenodd" clip-rule="evenodd" d="M598.5 223.5C611.181 223.405 623.848 223.739 636.5 224.5C633.965 238.74 626.965 250.24 615.5 259C610.754 261.416 605.754 263.083 600.5 264C604.535 266.007 608.535 268.007 612.5 270C612.841 284.979 608.341 298.479 599 310.5C585.579 311.49 572.079 311.823 558.5 311.5C565.252 299.66 571.252 287.326 576.5 274.5C572.167 273.167 567.833 273.167 563.5 274.5C558.167 286.5 552.833 298.5 547.5 310.5C534.833 311.833 522.167 311.833 509.5 310.5C522.333 282.167 535.167 253.833 548 225.5C560.42 224.511 572.92 224.178 585.5 224.5C581.265 235.476 576.598 246.309 571.5 257C571.645 257.772 571.978 258.439 572.5 259C576.244 259.929 579.744 259.429 583 257.5C588.482 246.181 593.649 234.848 598.5 223.5Z" fill="#3DA933"/>
    <path opacity="0.958" fill-rule="evenodd" clip-rule="evenodd" d="M317.5 224.5C335.17 224.333 352.836 224.5 370.5 225C357.371 253.425 344.371 281.925 331.5 310.5C319.5 311.833 307.5 311.833 295.5 310.5C300.5 299.833 305.5 289.167 310.5 278.5C305.281 277.196 300.114 277.196 295 278.5C290.441 289.286 285.607 299.952 280.5 310.5C268.167 311.833 255.833 311.833 243.5 310.5C251.559 292.048 259.893 273.714 268.5 255.5C285.067 245.392 301.4 235.059 317.5 224.5ZM324.5 246.5C321.916 253.503 318.916 260.336 315.5 267C308.833 267.667 302.167 267.667 295.5 267C305.064 259.922 314.731 253.089 324.5 246.5Z" fill="#3DA933"/>
    <path opacity="0.92" fill-rule="evenodd" clip-rule="evenodd" d="M364.5 266.5C379.167 266.5 393.833 266.5 408.5 266.5C406.406 273.36 403.74 280.027 400.5 286.5C397.167 287.5 393.833 288.5 390.5 289.5C392.5 290.833 394.5 292.167 396.5 293.5C394.362 299.247 392.029 304.914 389.5 310.5C374.5 311.833 359.5 311.833 344.5 310.5C351.727 296.05 358.393 281.383 364.5 266.5ZM375.5 277.5C379.226 277.177 382.893 277.511 386.5 278.5C385.294 281.079 383.961 283.579 382.5 286C378.833 286.667 375.167 286.667 371.5 286C373.249 283.337 374.582 280.503 375.5 277.5ZM368.5 292.5C372.226 292.177 375.893 292.511 379.5 293.5C378.253 295.323 377.586 297.323 377.5 299.5C373.445 299.824 369.445 299.491 365.5 298.5C366.513 296.473 367.513 294.473 368.5 292.5Z" fill="#3DA933"/>
    <path opacity="0.914" fill-rule="evenodd" clip-rule="evenodd" d="M418.5 266.5C423.844 266.334 429.177 266.501 434.5 267C432.144 272.212 429.644 277.379 427 282.5C426.333 283.5 426.333 284.5 427 285.5C433.833 279.333 440.667 273.167 447.5 267C452.833 266.333 458.167 266.333 463.5 267C456.833 281.667 450.167 296.333 443.5 311C438.136 311.829 432.802 311.663 427.5 310.5C431.006 303.172 434.172 295.838 437 288.5C430.198 296.303 423.031 303.803 415.5 311C409.804 311.83 404.137 311.663 398.5 310.5C405.727 296.05 412.393 281.383 418.5 266.5Z" fill="#3DA933"/>
    <path opacity="0.908" fill-rule="evenodd" clip-rule="evenodd" d="M486.5 266.5C496.522 266.168 506.522 266.501 516.5 267.5C510 281.833 503.5 296.167 497 310.5C491.554 311.806 486.054 311.806 480.5 310.5C482.226 306.047 484.226 301.714 486.5 297.5C483.167 296.167 479.833 296.167 476.5 297.5C474.226 301.714 472.226 306.047 470.5 310.5C464.833 311.833 459.167 311.833 453.5 310.5C458 300.833 462.5 291.167 467 281.5C473.479 276.359 479.979 271.359 486.5 266.5ZM495.5 276.5C493.974 280.385 492.308 284.219 490.5 288C487.167 288.667 483.833 288.667 480.5 288C485.17 283.673 490.17 279.84 495.5 276.5Z" fill="#3DA933"/>
    <path opacity="0.946" fill-rule="evenodd" clip-rule="evenodd" d="M215.5 339.5C227.833 339.5 240.167 339.5 252.5 339.5C251.874 353.844 251.374 368.178 251 382.5C262.38 368.242 273.88 354.075 285.5 340C299.179 339.167 312.846 339.334 326.5 340.5C314.833 366.5 303.167 392.5 291.5 418.5C282.5 419.833 273.5 419.833 264.5 418.5C272.612 401.623 280.112 384.623 287 367.5C273.833 384.667 260.667 401.833 247.5 419C240.174 419.5 232.841 419.666 225.5 419.5C226.264 404.496 226.764 389.496 227 374.5C220.295 389.408 213.462 404.242 206.5 419C197.482 419.832 188.482 419.665 179.5 418.5C191.507 392.137 203.507 365.804 215.5 339.5Z" fill="#3DA933"/>
    <path opacity="0.951" fill-rule="evenodd" clip-rule="evenodd" d="M343.5 339.5C353.833 339.5 364.167 339.5 374.5 339.5C366.712 359.356 358.045 378.856 348.5 398C359.495 398.5 370.495 398.667 381.5 398.5C389.707 379.082 398.207 359.748 407 340.5C417.439 339.181 427.939 339.181 438.5 340.5C429.694 360.251 420.694 379.918 411.5 399.5C415.5 400.167 419.5 400.833 423.5 401.5C418.333 413.167 413.167 424.833 408 436.5C398.893 437.817 389.727 437.817 380.5 436.5C383.074 430.939 385.741 425.439 388.5 420C361.5 419.667 334.5 419.333 307.5 419C319.643 392.549 331.643 366.049 343.5 339.5Z" fill="#3DA933"/>
    <path opacity="0.945" fill-rule="evenodd" clip-rule="evenodd" d="M461.5 339.5C472.52 339.168 483.52 339.501 494.5 340.5C489.973 350.083 485.639 359.75 481.5 369.5C484.784 370.657 488.118 370.824 491.5 370C500.181 361.155 507.515 351.322 513.5 340.5C522.475 339.502 531.475 339.168 540.5 339.5C540.691 344.899 540.191 350.233 539 355.5C536.553 356.406 534.053 357.239 531.5 358C524.54 363.292 517.873 368.958 511.5 375C507.469 377.016 503.469 379.016 499.5 381C512.729 390.684 517.229 403.517 513 419.5C501.247 420.488 489.414 420.821 477.5 420.5C478.315 410.843 478.482 401.176 478 391.5C477.995 388.771 476.829 386.771 474.5 385.5C468.637 396.561 463.303 407.894 458.5 419.5C447.52 420.499 436.52 420.832 425.5 420.5C436.722 393.174 448.722 366.174 461.5 339.5Z" fill="#3DA933"/>
    <path opacity="0.957" fill-rule="evenodd" clip-rule="evenodd" d="M138.5 379.5C153.5 379.5 168.5 379.5 183.5 379.5C181.887 386.787 179.887 393.953 177.5 401C162.489 401.833 147.489 401.666 132.5 400.5C134.91 393.605 136.91 386.605 138.5 379.5Z" fill="#3DA933"/>
</svg>