<svg width="95" height="56" viewBox="0 0 95 56" fill="none" xmlns="http://www.w3.org/2000/svg">
<path fill-rule="evenodd" clip-rule="evenodd" d="M41.7064 0.803614C36.0305 1.2769 27.3235 3.15907 21.6493 5.13918C17.8785 6.45515 13.9736 8.24688 11.2442 9.91384C5.52747 13.405 1.76223 17.8584 0.551579 22.5601C-0.00166607 24.7087 -0.190439 29.7849 0.225534 31.329C0.866761 33.7095 2.29983 35.7091 4.59007 37.4192C5.70097 38.2487 7.97709 39.4193 8.26473 39.3089C8.74564 39.1245 13.5073 35.8242 13.4119 35.7415C13.3525 35.6898 12.8381 35.5133 12.2688 35.349C11.6995 35.1848 10.596 34.7946 9.81654 34.4818C5.69023 32.8264 3.11651 30.5795 1.98167 27.6414C1.58097 26.6041 1.53788 24.6417 1.90093 23.9616C2.26347 23.2822 5.10451 20.5251 6.58109 19.4197C10.2464 16.6757 14.7845 14.4296 20.5495 12.5056C29.0604 9.66529 38.9407 7.9727 50.4269 7.38749C54.1638 7.19718 61.8912 7.30418 65.0579 7.59025C71.0855 8.1347 77.6827 9.44339 79.8276 10.52C81.835 11.5277 84.9839 14.3697 86.4457 16.4931C89.2546 20.5731 89.8609 24.8671 88.3227 29.7839C87.9175 31.0789 85.9731 34.9772 84.7841 36.8779C81.6966 41.8136 77.5607 45.7341 71.6214 49.3552C70.6768 49.9309 69.949 50.4463 70.004 50.5003C70.1574 50.651 71.9091 50.304 73.2265 49.8618C78.6887 48.0293 85.5588 43.4597 89.3336 39.1486C94.3 33.4766 95.6518 28.0616 93.4646 22.5999C91.25 17.0682 84.6194 11.5362 75.1956 7.35722C67.6311 4.00292 59.6657 1.81165 52.0547 0.991223C49.8513 0.753669 43.6528 0.641367 41.7064 0.803614ZM58.1147 13.0897C53.7977 14.5743 50.1297 15.8607 49.9635 15.9483C49.7972 16.0357 43.9318 19.339 36.9294 23.289L24.1976 30.4708L23.4086 30.207C22.9746 30.0618 20.9261 29.3639 18.8564 28.656L15.0932 27.3689L13.0987 28.7774C12.0017 29.5522 11.1044 30.2461 11.1044 30.3195C11.1044 30.3927 12.2948 31.4522 13.75 32.6737C15.2051 33.8952 16.3986 34.9452 16.4024 35.0069C16.406 35.0687 14.9697 36.0326 13.2105 37.1489C11.4513 38.2652 9.97145 39.219 9.92191 39.2685C9.87245 39.3179 12.3905 39.3584 15.5173 39.3584H21.2025L28.445 34.6836C40.2438 27.068 60.7233 13.9057 63.4406 12.1916C66.0233 10.5625 66.3035 10.3708 66.0866 10.3831C66.019 10.3869 62.4316 11.6048 58.1147 13.0897ZM36.5382 30.6837L33.3888 32.6185L31.8535 36.0108C31.0089 37.8767 30.318 39.4223 30.318 39.4456C30.318 39.4687 31.3223 39.4864 32.5499 39.4846L34.7818 39.4812L35.7389 37.3497C36.8132 34.9571 36.65 35.0977 38.1163 35.2988L38.7052 35.3796L38.471 35.9134C38.3421 36.2069 37.9128 37.1314 37.5169 37.9675L36.797 39.4877L38.9594 39.4848L41.1216 39.4818L43.1169 35.0534C44.2143 32.6177 45.3046 30.2028 45.5396 29.6868L45.9672 28.7488H42.8274H39.6877L36.5382 30.6837ZM68.0396 29.4281C67.8728 29.8017 66.8222 32.1161 65.7048 34.5711C64.5876 37.0262 63.6434 39.1369 63.6066 39.2614C63.5447 39.4708 63.708 39.4877 65.7958 39.4877H68.0517L69.1266 37.0942L70.2015 34.7006H71.026C71.6881 34.7006 71.8506 34.7405 71.8506 34.9031C71.8506 35.184 71.0929 36.796 70.2986 38.2052C69.933 38.8537 69.6579 39.4085 69.6875 39.4378C69.7168 39.4672 70.7735 39.5051 72.0356 39.5219L74.3306 39.5525L74.643 39.1643C75.4479 38.1646 76.4467 35.6621 76.3563 34.8722C76.3214 34.5668 76.1685 34.4297 75.4312 34.0422L74.548 33.5781L75.4013 33.3675C76.3746 33.1274 77.2071 32.6056 77.7888 31.871C78.2127 31.3358 79.0254 29.7057 79.1696 29.1017L79.255 28.743L76.8343 28.7783L74.4135 28.8135L73.8649 30.172C73.2283 31.7485 72.6547 32.9132 72.4483 33.0489C72.275 33.1627 71.6364 33.1737 71.2487 33.0697C70.9809 32.9978 71.0024 32.9248 71.8101 31.163C72.2722 30.1555 72.7017 29.2001 72.7647 29.0399L72.8792 28.7488H70.6111H68.343L68.0396 29.4281ZM40.4204 31.6277C40.2889 31.93 39.974 32.6288 39.7208 33.1803L39.2604 34.183H37.8667C36.6525 34.183 36.4975 34.159 36.6625 33.9967C36.8325 33.8297 40.5644 31.0881 40.6318 31.0807C40.6471 31.079 40.552 31.3253 40.4204 31.6277ZM51.0515 36.4796C50.4018 37.8851 49.8315 39.1369 49.7841 39.2614C49.7069 39.4645 49.7976 39.4877 50.6647 39.4877H51.6314L53.089 37.9304C53.8906 37.0737 54.571 36.3973 54.6009 36.4272C54.6306 36.457 54.335 37.1603 53.9436 37.99L53.2321 39.4984L54.2063 39.4607L55.1804 39.4231L56.3346 36.7987C56.9696 35.3552 57.4889 34.1179 57.4889 34.0492C57.4889 33.9805 57.1308 33.9242 56.6932 33.9242H55.8975L54.5906 35.1134C53.8719 35.7675 53.1507 36.42 52.9881 36.5636L52.6923 36.8245L52.9058 36.3124C53.0233 36.0307 53.2611 35.52 53.4342 35.1777C54.0966 33.8681 54.1112 33.9242 53.1109 33.9242H52.2327L51.0515 36.4796ZM44.266 36.5471C43.647 37.9154 43.1022 39.1369 43.0554 39.2614C42.9757 39.4725 43.152 39.4877 45.6686 39.4862L48.3672 39.4846L48.7174 38.6128C48.9099 38.1334 49.1046 37.6409 49.1501 37.5184C49.2121 37.3521 49.1167 37.2405 48.7734 37.0767C48.5205 36.9561 48.3403 36.8143 48.3729 36.7615C48.4055 36.7087 48.7169 36.6265 49.065 36.5786L49.6979 36.4915L50.1778 35.4343C50.4418 34.8528 50.6873 34.3044 50.7232 34.2154C50.7742 34.0889 50.1983 34.0543 48.0899 34.0565L45.3914 34.0593L44.266 36.5471ZM59.3441 34.9749L58.1589 35.8794L57.4207 37.5183C57.0146 38.4196 56.6538 39.2315 56.6189 39.3224C56.571 39.4474 56.7878 39.4877 57.5074 39.4877L58.4593 39.4875L58.8956 38.5173L59.3317 37.547H60.0245C60.7072 37.547 60.7154 37.5516 60.5958 37.8661C60.529 38.0415 60.3558 38.4177 60.2109 38.7019C60.0658 38.9861 59.9472 39.2818 59.9472 39.3589C59.9472 39.45 60.2703 39.4858 60.8705 39.4611L61.7936 39.4231L62.9168 36.9582C63.5346 35.6025 64.0781 34.3944 64.1244 34.2735C64.2015 34.0727 64.0489 34.0544 62.3692 34.062L60.5295 34.0705L59.3441 34.9749ZM61.7124 35.3798C61.1062 36.8037 61.1401 36.7707 60.2856 36.7707C59.8075 36.7707 59.5546 36.7247 59.6302 36.6513C59.8053 36.4813 61.8032 34.9593 61.8514 34.9593C61.8735 34.9593 61.8108 35.1485 61.7124 35.3798ZM48.0404 35.6796C47.7358 36.481 47.6924 36.5119 46.8747 36.5119C46.4503 36.5119 46.103 36.4805 46.103 36.442C46.103 36.4037 46.2206 36.1417 46.3644 35.8598C46.6246 35.3496 46.6289 35.3475 47.3964 35.3475H48.1666L48.0404 35.6796ZM47.1381 37.6764C46.8745 38.193 46.8727 38.1939 46.1004 38.1939C45.6748 38.1939 45.3266 38.1667 45.3266 38.1337C45.3266 38.1005 45.4247 37.8677 45.5447 37.6161C45.7604 37.1637 45.7715 37.1588 46.5825 37.1588H47.4022L47.1381 37.6764ZM26.677 43.4017C26.5908 43.5618 25.5764 45.7742 24.4226 48.3183L22.3247 52.9438H23.9645H25.6043L26.9443 49.9646C27.6813 48.3261 28.2964 47.0016 28.3111 47.0211C28.3392 47.0587 28.1786 50.3996 28.0715 52.0057L28.009 52.9438H29.3406H30.6722L33.3738 49.4024C34.8598 47.4546 36.0894 45.872 36.1061 45.8855C36.1227 45.8989 35.4387 47.4469 34.5858 49.3253C33.7329 51.2037 33.0351 52.7882 33.0351 52.8461C33.0351 52.9042 33.7357 52.9354 34.592 52.9155L36.1489 52.8791L38.2193 48.2859C39.358 45.7597 40.3231 43.5618 40.3638 43.4017L40.4381 43.1106H37.9817H35.5255L33.3612 45.7953C32.1708 47.2719 31.1586 48.4947 31.1118 48.5129C31.0323 48.5436 31.0995 46.8675 31.2833 44.2427L31.3625 43.1106H29.0981C26.8826 43.1106 26.8304 43.1169 26.677 43.4017ZM40.564 47.9948L38.3525 52.8791L43.3275 52.913C46.7058 52.9359 48.3026 52.9907 48.3026 53.0832C48.3026 53.1582 48.0987 53.6607 47.8497 54.1997C47.6006 54.7387 47.3968 55.2007 47.3968 55.2263C47.3968 55.2517 48.1158 55.2727 48.9946 55.2727H50.5924L51.5823 53.0915C52.1267 51.8917 52.5723 50.8756 52.5723 50.8333C52.5723 50.7911 52.2349 50.7392 51.8225 50.7181L51.0729 50.6796L52.7222 47.0568C53.6292 45.0643 54.3742 43.3597 54.3776 43.2688C54.3822 43.1405 53.9731 43.1115 52.5516 43.1394L50.7193 43.1753L49.1142 46.7334C48.2313 48.6903 47.4647 50.3366 47.4107 50.3918C47.3566 50.4471 46.4017 50.4762 45.2886 50.4566L43.2646 50.4208L44.878 46.8637C45.7652 44.9073 46.4912 43.2625 46.4912 43.2087C46.4912 43.1547 45.6552 43.1106 44.6335 43.1106H42.7756L40.564 47.9948ZM57.3777 43.337C57.2729 43.5344 54.0976 50.5294 53.2666 52.3939L52.9636 53.0732H54.9746H56.9855L57.3106 52.3292C58.4578 49.7028 58.9632 48.6741 59.1061 48.6741C59.4231 48.6741 59.606 49.4637 59.5923 50.7716C59.5849 51.4777 59.5402 52.2845 59.4929 52.5643L59.4069 53.0732H61.6026C64.1345 53.0732 63.9532 53.1837 63.9563 51.6383C63.9586 50.5597 63.4387 49.4398 62.5885 48.6915L62.0116 48.1837L62.8315 47.8C63.2987 47.5813 64.0094 47.082 64.4839 46.6389C65.529 45.6632 66.2371 45.1807 66.624 45.1807C67.0349 45.1807 67.1927 44.8238 67.1927 43.8954V43.1106H65.6513H64.1097L63.6936 43.7898C63.1299 44.7103 61.6895 46.547 61.3387 46.7927C61.1774 46.9057 60.7825 46.9921 60.4272 46.9921C59.8368 46.9921 59.8056 46.9752 59.8901 46.701C59.9396 46.5408 60.0546 46.2629 60.1459 46.0832C60.2371 45.9036 60.5757 45.1612 60.8985 44.4336L61.4851 43.1106H59.4915C57.725 43.1106 57.4844 43.1363 57.3777 43.337ZM17.1885 48.1889C17.1589 48.2779 17.0115 48.7873 16.8607 49.321C16.7098 49.8547 16.5569 50.3946 16.5206 50.5205C16.4588 50.7352 16.6261 50.7472 19.2074 50.7145L21.96 50.6796L22.3193 49.4504C22.517 48.7744 22.6799 48.1777 22.6815 48.1242C22.683 48.0708 21.4598 48.0272 19.9632 48.0272C17.9011 48.0272 17.2291 48.0664 17.1885 48.1889Z" fill="#456B92"/>
</svg>
