<svg width="65" height="44" viewBox="0 0 65 44" fill="none" xmlns="http://www.w3.org/2000/svg">
<path d="M32.2667 13.2C29.9328 13.2 27.6944 14.1271 26.0441 15.7775C24.3938 17.4278 23.4667 19.6661 23.4667 22C23.4667 24.3339 24.3938 26.5722 26.0441 28.2225C27.6944 29.8729 29.9328 30.8 32.2667 30.8C34.6006 30.8 36.8389 29.8729 38.4892 28.2225C40.1395 26.5722 41.0667 24.3339 41.0667 22C41.0667 19.6661 40.1395 17.4278 38.4892 15.7775C36.8389 14.1271 34.6006 13.2 32.2667 13.2ZM32.2667 36.6667C28.3768 36.6667 24.6463 35.1214 21.8958 32.3709C19.1452 29.6204 17.6 25.8898 17.6 22C17.6 18.1102 19.1452 14.3796 21.8958 11.6291C24.6463 8.87857 28.3768 7.33333 32.2667 7.33333C36.1565 7.33333 39.887 8.87857 42.6376 11.6291C45.3881 14.3796 46.9333 18.1102 46.9333 22C46.9333 25.8898 45.3881 29.6204 42.6376 32.3709C39.887 35.1214 36.1565 36.6667 32.2667 36.6667ZM32.2667 0C17.6 0 5.07467 9.12267 0 22C5.07467 34.8773 17.6 44 32.2667 44C46.9333 44 59.4587 34.8773 64.5333 22C59.4587 9.12267 46.9333 0 32.2667 0Z" fill="white"/>
</svg>
