<svg width="44" height="44" viewBox="0 0 44 44" fill="none" xmlns="http://www.w3.org/2000/svg">
<path d="M22 44C18.9444 44 16.0828 43.4198 13.4151 42.2595C10.7474 41.0993 8.42519 39.5307 6.44845 37.554C4.47171 35.5773 2.90319 33.255 1.74289 30.5873C0.582596 27.9196 0.00163305 25.0572 3.4188e-06 22C-0.00162621 18.9428 0.579337 16.0812 1.74289 13.4151C2.90645 10.749 4.47415 8.42681 6.446 6.44844C8.41785 4.47007 10.7401 2.90156 13.4127 1.74289C16.0853 0.584222 18.9477 0.00325926 22 0C25.3407 0 28.5087 0.712963 31.504 2.13889C34.4993 3.56481 37.035 5.58148 39.1111 8.18889V2.44444H44V17.1111H29.3333V12.2222H36.0556C34.3852 9.94074 32.3278 8.14815 29.8833 6.84444C27.4389 5.54074 24.8111 4.88889 22 4.88889C17.2333 4.88889 13.1902 6.54948 9.87067 9.87066C6.55111 13.1918 4.89052 17.235 4.88889 22C4.88726 26.765 6.54786 30.809 9.87067 34.1318C13.1935 37.4546 17.2366 39.1144 22 39.1111C26.2778 39.1111 30.0161 37.7259 33.2151 34.9555C36.4141 32.1852 38.2979 28.6815 38.8667 24.4444H43.8778C43.2667 30.0259 40.8736 34.681 36.6984 38.4095C32.5233 42.1381 27.6239 44.0016 22 44ZM28.8444 32.2667L19.5556 22.9778V9.77778H24.4444V21.0222L32.2667 28.8444L28.8444 32.2667Z" fill="white"/>
</svg>
