<svg width="48" height="44" viewBox="0 0 48 44" fill="none" xmlns="http://www.w3.org/2000/svg">
<path d="M6 43.9999C4.4087 43.9999 2.88258 43.3636 1.75736 42.231C0.632141 41.0984 0 39.5622 0 37.9604V29.3325C1.01624e-08 28.646 0.270918 27.9877 0.753154 27.5023C1.23539 27.0168 1.88944 26.7441 2.57143 26.7441C3.25341 26.7441 3.90747 27.0168 4.3897 27.5023C4.87194 27.9877 5.14286 28.646 5.14286 29.3325V37.9604C5.14286 38.4367 5.52686 38.8232 6 38.8232H42C42.2273 38.8232 42.4453 38.7323 42.6061 38.5705C42.7668 38.4087 42.8571 38.1892 42.8571 37.9604V29.3325C42.8571 28.646 43.1281 27.9877 43.6103 27.5023C44.0925 27.0168 44.7466 26.7441 45.4286 26.7441C46.1106 26.7441 46.7646 27.0168 47.2468 27.5023C47.7291 27.9877 48 28.646 48 29.3325V37.9604C48 39.5622 47.3679 41.0984 46.2426 42.231C45.1174 43.3636 43.5913 43.9999 42 43.9999H6Z" fill="white"/>
<path d="M36.9598 11.9732C37.1984 12.2134 37.3877 12.4986 37.5168 12.8125C37.646 13.1263 37.7125 13.4627 37.7125 13.8024C37.7125 14.1421 37.646 14.4784 37.5168 14.7923C37.3877 15.1061 37.1984 15.3913 36.9598 15.6315C36.7211 15.8717 36.4378 16.0622 36.1261 16.1922C35.8143 16.3222 35.4801 16.3891 35.1426 16.3891C34.8051 16.3891 34.471 16.3222 34.1592 16.1922C33.8474 16.0622 33.5641 15.8717 33.3255 15.6315L26.5712 8.83614V28.4698C26.5712 29.1563 26.3003 29.8146 25.818 30.3C25.3358 30.7855 24.6817 31.0582 23.9998 31.0582C23.3178 31.0582 22.6637 30.7855 22.1815 30.3C21.6993 29.8146 21.4283 29.1563 21.4283 28.4698V8.83614L14.6741 15.6315C14.4354 15.8717 14.1521 16.0622 13.8403 16.1922C13.5286 16.3222 13.1944 16.3891 12.8569 16.3891C12.5194 16.3891 12.1853 16.3222 11.8735 16.1922C11.5617 16.0622 11.2784 15.8717 11.0398 15.6315C10.8011 15.3913 10.6118 15.1061 10.4827 14.7923C10.3536 14.4784 10.2871 14.1421 10.2871 13.8024C10.2871 13.4627 10.3536 13.1263 10.4827 12.8125C10.6118 12.4986 10.8011 12.2134 11.0398 11.9732L22.1826 0.756978C22.6648 0.272261 23.3183 0 23.9998 0C24.6812 0 25.3348 0.272261 25.8169 0.756978L36.9598 11.9732Z" fill="white"/>
</svg>
