<svg width="17" height="12" viewBox="0 0 17 12" fill="none" xmlns="http://www.w3.org/2000/svg">
<path d="M2.77677 1H2.77821L14.109 1L14.1104 1C14.3689 0.999627 14.6222 1.07246 14.841 1.21006C15.059 1.3472 15.2339 1.54312 15.3456 1.77525C15.4908 2.08393 15.5467 2.42716 15.5068 2.766C15.4671 3.1036 15.334 3.42337 15.1224 3.68932L9.47087 10.5356C9.34362 10.6802 9.18726 10.7963 9.01201 10.8764C8.83358 10.9578 8.63973 11 8.4436 11C8.24747 11 8.05362 10.9578 7.87519 10.8764C7.69994 10.7963 7.54357 10.6802 7.41632 10.5356L1.76476 3.68931C1.55323 3.42337 1.42007 3.10359 1.38035 2.766C1.34048 2.42714 1.39637 2.08388 1.54164 1.77518C1.6533 1.54308 1.8282 1.34719 2.04624 1.21006C2.26503 1.07246 2.51831 0.999627 2.77677 1ZM2.77821 1.90735e-06L14.109 1.90735e-06L2.77821 1.90735e-06Z" stroke="#01996D" stroke-width="2"/>
</svg>
