<svg width="17" height="12" viewBox="0 0 17 12" fill="none" xmlns="http://www.w3.org/2000/svg">
<path d="M3.25886 1.90735e-06L14.5896 1.90735e-06C15.037 -0.000645785 15.4753 0.125401 15.854 0.363554C16.2326 0.601707 16.5361 0.942227 16.7293 1.3457C16.9554 1.82442 17.0425 2.35703 16.9806 2.88285C16.9188 3.40866 16.7105 3.90652 16.3794 4.31969L10.714 11.1827C10.4917 11.4393 10.2168 11.645 9.90801 11.786C9.59921 11.927 9.26371 12 8.92424 12C8.58477 12 8.24927 11.927 7.94047 11.786C7.63167 11.645 7.3568 11.4393 7.13447 11.1827L1.46908 4.31969C1.13803 3.90652 0.929702 3.40866 0.867842 2.88285C0.805981 2.35703 0.893076 1.82442 1.1192 1.3457C1.31236 0.942227 1.61584 0.601707 1.9945 0.363554C2.37316 0.125401 2.81153 -0.000645785 3.25886 1.90735e-06Z" fill="#01996D"/>
</svg>
