<svg width="49" height="49" viewBox="0 0 49 49" fill="none" xmlns="http://www.w3.org/2000/svg">
<circle cx="24.5" cy="24.5" r="24.5" fill="#878787" fill-opacity="0.61"/>
<path d="M24.5 12C26.1576 12 27.7473 12.6585 28.9194 13.8306C30.0915 15.0027 30.75 16.5924 30.75 18.25C30.75 19.9076 30.0915 21.4973 28.9194 22.6694C27.7473 23.8415 26.1576 24.5 24.5 24.5C22.8424 24.5 21.2527 23.8415 20.0806 22.6694C18.9085 21.4973 18.25 19.9076 18.25 18.25C18.25 16.5924 18.9085 15.0027 20.0806 13.8306C21.2527 12.6585 22.8424 12 24.5 12ZM24.5 27.625C31.4063 27.625 37 30.4219 37 33.875V37H12V33.875C12 30.4219 17.5937 27.625 24.5 27.625Z" fill="white"/>
</svg>
