<svg width="303" height="303" viewBox="0 0 303 303" fill="none" xmlns="http://www.w3.org/2000/svg">
    <g filter="url(#filter0_d_496_2213)">
        <rect x="4" width="295" height="295" rx="10" fill="#D9D9D9" />
    </g>
    <path d="M151 72C160.946 72 170.484 75.9509 177.517 82.9835C184.549 90.0161 188.5 99.5544 188.5 109.5C188.5 119.446 184.549 128.984 177.517 136.017C170.484 143.049 160.946 147 151 147C141.054 147 131.516 143.049 124.483 136.017C117.451 128.984 113.5 119.446 113.5 109.5C113.5 99.5544 117.451 90.0161 124.483 82.9835C131.516 75.9509 141.054 72 151 72ZM151 165.75C192.438 165.75 226 182.531 226 203.25V222H76V203.25C76 182.531 109.562 165.75 151 165.75Z" fill="white" />
    <defs>
        <filter id="filter0_d_496_2213" x="0" y="0" width="303" height="303" filterUnits="userSpaceOnUse" color-interpolation-filters="sRGB">
            <feFlood flood-opacity="0" result="BackgroundImageFix" />
            <feColorMatrix in="SourceAlpha" type="matrix" values="0 0 0 0 0 0 0 0 0 0 0 0 0 0 0 0 0 0 127 0" result="hardAlpha" />
            <feOffset dy="4" />
            <feGaussianBlur stdDeviation="2" />
            <feComposite in2="hardAlpha" operator="out" />
            <feColorMatrix type="matrix" values="0 0 0 0 0 0 0 0 0 0 0 0 0 0 0 0 0 0 0.25 0" />
            <feBlend mode="normal" in2="BackgroundImageFix" result="effect1_dropShadow_496_2213" />
            <feBlend mode="normal" in="SourceGraphic" in2="effect1_dropShadow_496_2213" result="shape" />
        </filter>
    </defs>
</svg>