<svg width="19" height="22" viewBox="0 0 19 22" fill="none" xmlns="http://www.w3.org/2000/svg">
<path d="M9.5 0.899841C8.28086 0.899841 7.11165 1.38414 6.24959 2.24621C5.38753 3.10827 4.90323 4.27748 4.90323 5.49662C4.90323 6.71576 5.38753 7.88496 6.24959 8.74703C7.11165 9.60909 8.28086 10.0934 9.5 10.0934C10.7191 10.0934 11.8883 9.60909 12.7504 8.74703C13.6125 7.88496 14.0968 6.71576 14.0968 5.49662C14.0968 4.27748 13.6125 3.10827 12.7504 2.24621C11.8883 1.38414 10.7191 0.899841 9.5 0.899841ZM4.59677 12.545C3.37763 12.545 2.20843 13.0293 1.34636 13.8914C0.484302 14.7534 0 15.9226 0 17.1418V18.598C0 19.5223 0.66929 20.3093 1.58129 20.4576C6.82529 21.3144 12.1747 21.3144 17.4187 20.4576C17.8601 20.3857 18.2615 20.1592 18.5512 19.8185C18.8409 19.4778 19 19.0452 19 18.598V17.1418C19 15.9226 18.5157 14.7534 17.6536 13.8914C16.7916 13.0293 15.6224 12.545 14.4032 12.545H13.9865C13.7597 12.545 13.5341 12.5818 13.3196 12.6504L12.2581 12.9973C10.4659 13.5823 8.53412 13.5823 6.74194 12.9973L5.68039 12.6504C5.46545 12.5805 5.24081 12.5449 5.01477 12.545H4.59677Z" fill="white"/>
</svg>
