<svg width="29" height="32" viewBox="0 0 29 32" fill="none" xmlns="http://www.w3.org/2000/svg">
<path d="M28.25 5.625H21.375V3.75C21.375 2.9212 21.0458 2.12634 20.4597 1.54029C19.8737 0.95424 19.0788 0.625 18.25 0.625H10.75C9.9212 0.625 9.12634 0.95424 8.54029 1.54029C7.95424 2.12634 7.625 2.9212 7.625 3.75V5.625H0.75C0.58424 5.625 0.425269 5.69085 0.308058 5.80806C0.190848 5.92527 0.125 6.08424 0.125 6.25C0.125 6.41576 0.190848 6.57473 0.308058 6.69194C0.425269 6.80915 0.58424 6.875 0.75 6.875H2.625V30C2.625 30.4973 2.82254 30.9742 3.17417 31.3258C3.52581 31.6775 4.00272 31.875 4.5 31.875H24.5C24.9973 31.875 25.4742 31.6775 25.8258 31.3258C26.1775 30.9742 26.375 30.4973 26.375 30V6.875H28.25C28.4158 6.875 28.5747 6.80915 28.6919 6.69194C28.8092 6.57473 28.875 6.41576 28.875 6.25C28.875 6.08424 28.8092 5.92527 28.6919 5.80806C28.5747 5.69085 28.4158 5.625 28.25 5.625ZM8.875 3.75C8.875 3.25272 9.07254 2.77581 9.42417 2.42417C9.77581 2.07254 10.2527 1.875 10.75 1.875H18.25C18.7473 1.875 19.2242 2.07254 19.5758 2.42417C19.9275 2.77581 20.125 3.25272 20.125 3.75V5.625H8.875V3.75ZM25.125 30C25.125 30.1658 25.0592 30.3247 24.9419 30.4419C24.8247 30.5592 24.6658 30.625 24.5 30.625H4.5C4.33424 30.625 4.17527 30.5592 4.05806 30.4419C3.94085 30.3247 3.875 30.1658 3.875 30V6.875H25.125V30ZM11.375 13.75V23.75C11.375 23.9158 11.3092 24.0747 11.1919 24.1919C11.0747 24.3092 10.9158 24.375 10.75 24.375C10.5842 24.375 10.4253 24.3092 10.3081 24.1919C10.1908 24.0747 10.125 23.9158 10.125 23.75V13.75C10.125 13.5842 10.1908 13.4253 10.3081 13.3081C10.4253 13.1908 10.5842 13.125 10.75 13.125C10.9158 13.125 11.0747 13.1908 11.1919 13.3081C11.3092 13.4253 11.375 13.5842 11.375 13.75ZM18.875 13.75V23.75C18.875 23.9158 18.8092 24.0747 18.6919 24.1919C18.5747 24.3092 18.4158 24.375 18.25 24.375C18.0842 24.375 17.9253 24.3092 17.8081 24.1919C17.6908 24.0747 17.625 23.9158 17.625 23.75V13.75C17.625 13.5842 17.6908 13.4253 17.8081 13.3081C17.9253 13.1908 18.0842 13.125 18.25 13.125C18.4158 13.125 18.5747 13.1908 18.6919 13.3081C18.8092 13.4253 18.875 13.5842 18.875 13.75Z" fill="#CB0000"/>
</svg>
