<svg width="31" height="31" viewBox="0 0 31 31" fill="none" xmlns="http://www.w3.org/2000/svg">
<path d="M29.9422 6.05782L24.9422 1.05782C24.8841 0.999706 24.8152 0.953606 24.7393 0.922154C24.6635 0.890701 24.5821 0.874512 24.5 0.874512C24.4179 0.874512 24.3365 0.890701 24.2607 0.922154C24.1848 0.953606 24.1159 0.999706 24.0578 1.05782L9.05781 16.0578C8.99979 16.1159 8.95378 16.1848 8.92241 16.2607C8.89105 16.3366 8.87494 16.4179 8.875 16.5V21.5C8.875 21.6658 8.94085 21.8247 9.05806 21.9419C9.17527 22.0592 9.33424 22.125 9.5 22.125H14.5C14.5821 22.1251 14.6634 22.109 14.7393 22.0776C14.8152 22.0462 14.8841 22.0002 14.9422 21.9422L29.9422 6.94219C30.0003 6.88415 30.0464 6.81522 30.0779 6.73934C30.1093 6.66347 30.1255 6.58214 30.1255 6.5C30.1255 6.41787 30.1093 6.33654 30.0779 6.26067C30.0464 6.18479 30.0003 6.11586 29.9422 6.05782ZM14.2406 20.875H10.125V16.7594L20.75 6.13438L24.8656 10.25L14.2406 20.875ZM25.75 9.36563L21.6344 5.25L24.5 2.38438L28.6156 6.5L25.75 9.36563ZM28.875 16.5V29C28.875 29.4973 28.6775 29.9742 28.3258 30.3258C27.9742 30.6775 27.4973 30.875 27 30.875H2C1.50272 30.875 1.02581 30.6775 0.674175 30.3258C0.322544 29.9742 0.125 29.4973 0.125 29V4C0.125 3.50272 0.322544 3.02581 0.674175 2.67418C1.02581 2.32255 1.50272 2.125 2 2.125H14.5C14.6658 2.125 14.8247 2.19085 14.9419 2.30806C15.0592 2.42527 15.125 2.58424 15.125 2.75C15.125 2.91576 15.0592 3.07473 14.9419 3.19195C14.8247 3.30916 14.6658 3.375 14.5 3.375H2C1.83424 3.375 1.67527 3.44085 1.55806 3.55806C1.44085 3.67527 1.375 3.83424 1.375 4V29C1.375 29.1658 1.44085 29.3247 1.55806 29.4419C1.67527 29.5592 1.83424 29.625 2 29.625H27C27.1658 29.625 27.3247 29.5592 27.4419 29.4419C27.5592 29.3247 27.625 29.1658 27.625 29V16.5C27.625 16.3342 27.6908 16.1753 27.8081 16.0581C27.9253 15.9409 28.0842 15.875 28.25 15.875C28.4158 15.875 28.5747 15.9409 28.6919 16.0581C28.8092 16.1753 28.875 16.3342 28.875 16.5Z" fill="#456B92"/>
</svg>
