<svg width="21" height="20" viewBox="0 0 21 20" fill="none" xmlns="http://www.w3.org/2000/svg">
<path d="M2.72763 19.5002C2.04048 19.5002 1.38147 19.2254 0.895578 18.7363C0.409689 18.2472 0.136719 17.5839 0.136719 16.8922V13.1665C0.136719 12.8701 0.253706 12.5858 0.461944 12.3762C0.670183 12.1666 0.952615 12.0488 1.24711 12.0488C1.5416 12.0488 1.82403 12.1666 2.03227 12.3762C2.24051 12.5858 2.3575 12.8701 2.3575 13.1665V16.8922C2.3575 17.0979 2.52332 17.2648 2.72763 17.2648H18.2731C18.3712 17.2648 18.4654 17.2255 18.5348 17.1557C18.6042 17.0858 18.6432 16.991 18.6432 16.8922V13.1665C18.6432 12.8701 18.7602 12.5858 18.9684 12.3762C19.1767 12.1666 19.4591 12.0488 19.7536 12.0488C20.0481 12.0488 20.3305 12.1666 20.5388 12.3762C20.747 12.5858 20.864 12.8701 20.864 13.1665V16.8922C20.864 17.5839 20.591 18.2472 20.1051 18.7363C19.6192 19.2254 18.9602 19.5002 18.2731 19.5002H2.72763Z" fill="white"/>
<path d="M16.0959 5.67027C16.1989 5.77399 16.2807 5.89713 16.3364 6.03265C16.3922 6.16817 16.4209 6.31342 16.4209 6.46011C16.4209 6.6068 16.3922 6.75205 16.3364 6.88757C16.2807 7.02309 16.1989 7.14623 16.0959 7.24996C15.9928 7.35368 15.8705 7.43596 15.7359 7.49209C15.6012 7.54823 15.4569 7.57712 15.3112 7.57712C15.1655 7.57712 15.0212 7.54823 14.8865 7.49209C14.7519 7.43596 14.6296 7.35368 14.5265 7.24996L11.6099 4.31561V12.7938C11.6099 13.0902 11.4929 13.3745 11.2847 13.5841C11.0764 13.7937 10.794 13.9115 10.4995 13.9115C10.205 13.9115 9.92259 13.7937 9.71435 13.5841C9.50611 13.3745 9.38912 13.0902 9.38912 12.7938V4.31561L6.4725 7.24996C6.36945 7.35368 6.24712 7.43596 6.11249 7.49209C5.97785 7.54823 5.83355 7.57712 5.68782 7.57712C5.5421 7.57712 5.3978 7.54823 5.26316 7.49209C5.12853 7.43596 5.00619 7.35368 4.90315 7.24996C4.8001 7.14623 4.71836 7.02309 4.6626 6.88757C4.60683 6.75205 4.57812 6.6068 4.57813 6.46011C4.57813 6.31342 4.60683 6.16817 4.6626 6.03265C4.71836 5.89713 4.8001 5.77399 4.90315 5.67027L9.71484 0.826877C9.92304 0.617567 10.2053 0.5 10.4995 0.5C10.7938 0.5 11.076 0.617567 11.2842 0.826877L16.0959 5.67027Z" fill="white"/>
</svg>
