<svg width="12" height="14" viewBox="0 0 12 14" fill="none" xmlns="http://www.w3.org/2000/svg">
<path d="M6.37333 0.447346C6.26309 0.372829 6.13307 0.333008 6 0.333008C5.86693 0.333008 5.73691 0.372829 5.62667 0.447346L0.293333 4.04735C0.202954 4.10844 0.128946 4.19077 0.0778034 4.28713C0.0266604 4.38349 -5.52558e-05 4.49092 8.58051e-08 4.60001V13C8.58051e-08 13.1768 0.0702379 13.3464 0.195262 13.4714C0.320286 13.5964 0.489856 13.6667 0.666667 13.6667H11.3333C11.5101 13.6667 11.6797 13.5964 11.8047 13.4714C11.9298 13.3464 12 13.1768 12 13V4.60001C12.0001 4.49092 11.9733 4.38349 11.9222 4.28713C11.8711 4.19077 11.797 4.10844 11.7067 4.04735L6.37333 0.447346ZM7.33333 12.3333H4.66667V8.33335H7.33333V12.3333ZM10.6667 12.3333H8.66667V7.66668C8.66667 7.48987 8.59643 7.3203 8.4714 7.19528C8.34638 7.07025 8.17681 7.00001 8 7.00001H4C3.82319 7.00001 3.65362 7.07025 3.5286 7.19528C3.40357 7.3203 3.33333 7.48987 3.33333 7.66668V12.3333H1.33333V4.95468L6 1.80468L10.6667 4.95468V12.3333Z" fill="#007C89"/>
</svg>
